<svg class="fcO1q wUoV9 YgmFC" width="16" height="16" viewBox="0 0 24 24" focusable="false" aria-hidden="true" xmlns="http://www.w3.org/2000/svg" fill="none"><g clip-path="url(#clip0_726_31)"><path fill-rule="evenodd" clip-rule="evenodd" d="M4.14146 0.63171C3.35122 0.939027 2.68293 1.34878 2.01463 2.01708C1.34634 2.68049 0.936585 3.35366 0.629268 4.13903C0.331707 4.9 0.131707 5.77317 0.0731707 7.05122C0.0146341 8.32927 0 8.73903 0 11.9976C0 15.2561 0.0146341 15.6659 0.0731707 16.9439C0.131707 18.222 0.336585 19.0951 0.629268 19.8561C0.936585 20.6463 1.34634 21.3146 2.01463 21.9829C2.68293 22.6512 3.35122 23.061 4.14146 23.3683C4.90244 23.6659 5.77561 23.8659 7.05366 23.9244C8.33171 23.9829 8.74146 23.9976 12 23.9976C15.2585 23.9976 15.6683 23.9829 16.9463 23.9244C18.2244 23.8659 19.0976 23.661 19.8585 23.3683C20.6488 23.061 21.3171 22.6512 21.9854 21.9829C22.6537 21.3146 23.0634 20.6463 23.3707 19.8561C23.6683 19.0951 23.8683 18.222 23.9268 16.9439C23.9854 15.6659 24 15.2561 24 11.9976C24 8.73903 23.9854 8.32927 23.9268 7.05122C23.8683 5.77317 23.6634 4.9 23.3707 4.13903C23.0634 3.35366 22.6537 2.68049 21.9902 2.01708C21.3219 1.34878 20.6537 0.939027 19.8634 0.63171C19.1024 0.334149 18.2293 0.134149 16.9512 0.0756121C15.6732 0.0170755 15.2634 0.00244141 12.0049 0.00244141C8.74634 0.00244141 8.33659 0.0170755 7.05854 0.0756121C5.77561 0.129271 4.90244 0.334149 4.14146 0.63171ZM16.8488 2.23171C18.0195 2.28537 18.6537 2.48049 19.078 2.64634C19.639 2.86586 20.039 3.12439 20.4585 3.5439C20.878 3.96342 21.1366 4.36342 21.3561 4.92439C21.5219 5.34878 21.7171 5.98293 21.7707 7.15366C21.8293 8.41707 21.839 8.79756 21.839 12.0024C21.839 15.2073 21.8244 15.5878 21.7707 16.8512C21.7171 18.022 21.5219 18.6561 21.3561 19.0805C21.1366 19.6415 20.878 20.0415 20.4585 20.461C20.039 20.8805 19.639 21.139 19.078 21.3585C18.6537 21.5244 18.0195 21.7195 16.8488 21.7732C15.5854 21.8317 15.2049 21.8415 12 21.8415C8.79512 21.8415 8.41463 21.8268 7.15122 21.7732C5.98049 21.7195 5.34634 21.5244 4.92195 21.3585C4.36098 21.139 3.96098 20.8805 3.54146 20.461C3.12195 20.0415 2.86341 19.6415 2.6439 19.0805C2.47805 18.6561 2.28293 18.022 2.22927 16.8512C2.17073 15.5878 2.16098 15.2073 2.16098 12.0024C2.16098 8.79756 2.17561 8.41707 2.22927 7.15366C2.28293 5.98293 2.47805 5.34878 2.6439 4.92439C2.86341 4.36342 3.12195 3.96342 3.54146 3.5439C3.96098 3.12439 4.36098 2.86586 4.92195 2.64634C5.34634 2.48049 5.98049 2.28537 7.15122 2.23171C8.41463 2.17317 8.79512 2.16342 12 2.16342C15.2049 2.16342 15.5854 2.17317 16.8488 2.23171ZM5.83901 12.0025C5.83901 15.4074 8.59998 18.1635 12 18.1635C15.4 18.1635 18.161 15.4025 18.161 12.0025C18.161 8.60253 15.4049 5.84156 12 5.84156C8.59511 5.84156 5.83901 8.59765 5.83901 12.0025ZM16 12.0025C16 14.2123 14.2097 16.0025 12 16.0025C9.79023 16.0025 7.99998 14.2123 7.99998 12.0025C7.99998 9.79278 9.79023 8.00253 12 8.00253C14.2097 8.00253 16 9.79278 16 12.0025ZM19.8488 5.5976C19.8488 6.39235 19.2045 7.03662 18.4098 7.03662C17.615 7.03662 16.9707 6.39235 16.9707 5.5976C16.9707 4.80285 17.615 4.15858 18.4098 4.15858C19.2045 4.15858 19.8488 4.80285 19.8488 5.5976Z" fill="currentColor"></path></g><defs><clipPath id="clip0_726_31"><rect width="24" height="23.9951" fill="white" transform="translate(0 0.00244141)"></rect></clipPath></defs></svg>