<svg class="fcO1q wUoV9 YgmFC" width="16" height="16" viewBox="0 0 24 24" focusable="false" aria-hidden="true" xmlns="http://www.w3.org/2000/svg" fill="none"><path fill-rule="evenodd" clip-rule="evenodd" d="M24 5.28a9.658 9.658 0 01-2.825.776 4.961 4.961 0 002.165-2.73 9.87 9.87 0 01-3.125 1.198c-3.381-3.603-9.502-.298-8.389 4.5A13.968 13.968 0 011.68 3.868C.39 6.093 1.068 9.026 3.202 10.45a4.918 4.918 0 01-2.231-.614c0 2.341 1.636 4.436 3.949 4.899a5.019 5.019 0 01-2.227.085 4.94 4.94 0 004.598 3.429A9.967 9.967 0 010 20.292c4.842 3.112 11.493 2.952 16.07-.593 3.582-2.773 5.666-7.341 5.474-11.867A9.88 9.88 0 0024 5.28z" fill="currentColor"></path></svg>