<svg class="fcO1q wUoV9 YgmFC" width="16" height="16" viewBox="0 0 24 24" focusable="false" aria-hidden="true" xmlns="http://www.w3.org/2000/svg" fill="none"><path fill-rule="evenodd" clip-rule="evenodd" d="M23.506 6.16c.492 1.9.494 5.86.494 5.86s0 3.94-.494 5.84A3.025 3.025 0 0121.39 20c-1.878.5-9.39.5-9.39.5s-7.493 0-9.39-.52a3.025 3.025 0 01-2.116-2.14C0 15.96 0 12 0 12s0-3.94.494-5.84C.771 5.12 1.601 4.28 2.61 4 4.488 3.5 12 3.5 12 3.5s7.512 0 9.39.52a3.01 3.01 0 012.116 2.14zm-7.758 5.838L9.5 8.4v7.197l6.248-3.599z" fill="currentColor"></path></svg>